<?xml version="1.0" encoding="utf-8"?><svg xmlns="http://www.w3.org/2000/svg" xmlns:xlink="http://www.w3.org/1999/xlink"><symbol viewBox="0 0 18 18" id="arrow-right" xmlns="http://www.w3.org/2000/svg">
    <path d="M3.75 9H14.25" stroke-width="1.125" stroke-linecap="round" stroke-linejoin="round"/>
    <path d="M9.75 13.5L14.25 9" stroke-width="1.125" stroke-linecap="round" stroke-linejoin="round"/>
    <path d="M9.75 4.5L14.25 9" stroke-width="1.125" stroke-linecap="round" stroke-linejoin="round"/>
</symbol><symbol viewBox="0 0 20 20" id="arrow-right-black" xmlns="http://www.w3.org/2000/svg">
    <path d="M4.16675 10H15.8334" stroke-width="1.25" stroke-linecap="round" stroke-linejoin="round"/>
    <path d="M10.8333 15L15.8332 10" stroke-width="1.25" stroke-linecap="round" stroke-linejoin="round"/>
    <path d="M10.8333 5L15.8332 10" stroke-width="1.25" stroke-linecap="round" stroke-linejoin="round"/>
</symbol><symbol viewBox="0 0 24 24" id="cart" xmlns="http://www.w3.org/2000/svg">
    <path d="M9 6L9 7C9 8.65685 10.3431 10 12 10C13.6569 10 15 8.65685 15 7V6" stroke-width="1.5" stroke-linecap="round" stroke-linejoin="round"/>
    <path d="M15.6116 3H8.3886C6.43325 3 4.76449 4.41365 4.44303 6.3424L2.77636 16.3424C2.37001 18.7805 4.25018 21 6.72194 21H17.2783C19.75 21 21.6302 18.7805 21.2238 16.3424L19.5572 6.3424C19.2357 4.41365 17.5669 3 15.6116 3Z" stroke-width="1.5" stroke-linejoin="round"/>
</symbol><symbol viewBox="0 0 19 18" id="chevron-down" xmlns="http://www.w3.org/2000/svg">
    <path d="M5.20435 6.75L9.70435 11.25L14.2043 6.75" stroke-width="1.125" stroke-linecap="round" stroke-linejoin="round"/>
</symbol><symbol viewBox="0 0 20 20" id="close" xmlns="http://www.w3.org/2000/svg">
    <path fill-rule="evenodd" clip-rule="evenodd" d="M15.4419 5.44194C15.686 5.19786 15.686 4.80214 15.4419 4.55806C15.1979 4.31398 14.8021 4.31398 14.5581 4.55806L10 9.11612L5.44194 4.55806C5.19786 4.31398 4.80214 4.31398 4.55806 4.55806C4.31398 4.80214 4.31398 5.19786 4.55806 5.44194L9.11612 10L4.55806 14.5581C4.31398 14.8021 4.31398 15.1979 4.55806 15.4419C4.80214 15.686 5.19786 15.686 5.44194 15.4419L10 10.8839L14.5581 15.4419C14.8021 15.686 15.1979 15.686 15.4419 15.4419C15.686 15.1979 15.686 14.8021 15.4419 14.5581L10.8839 10L15.4419 5.44194Z"/>
</symbol><symbol viewBox="0 0 24 24" id="email" xmlns="http://www.w3.org/2000/svg">
    <path fill-rule="evenodd" clip-rule="evenodd" d="M4.07675 6.53075C4.23299 6.01858 4.70925 5.646 5.27254 5.646H19.2725C19.8358 5.646 20.3121 6.01858 20.4683 6.53075L12.2725 11.9946L4.07675 6.53075ZM2.52257 6.88226C2.52244 6.89026 2.52242 6.89826 2.52254 6.90625V16.896C2.52254 18.4148 3.75376 19.646 5.27254 19.646H19.2725C20.7913 19.646 22.0225 18.4148 22.0225 16.896V6.90622M20.5225 8.29738V16.896C20.5225 17.5864 19.9629 18.146 19.2725 18.146H5.27254C4.58218 18.146 4.02254 17.5864 4.02254 16.896V8.29738L11.8565 13.52C12.1084 13.688 12.4366 13.688 12.6886 13.52L20.5225 8.29738ZM22.0225 6.88229C22.0151 5.36981 20.7868 4.146 19.2725 4.146H5.27254C3.75834 4.146 2.52997 5.3698 2.52257 6.88226"/>
</symbol><symbol viewBox="0 0 20 20" id="fav" xmlns="http://www.w3.org/2000/svg">
    <path fill-rule="evenodd" clip-rule="evenodd" d="M10.577 5.76422C10.2546 6.07365 9.74548 6.07365 9.42304 5.76422L8.84604 5.2105C8.17068 4.56239 7.25832 4.16667 6.25004 4.16667C4.17897 4.16667 2.50004 5.8456 2.50004 7.91667C2.50004 9.90219 3.57486 11.5417 5.1265 12.8888C6.67947 14.237 8.53621 15.1312 9.64558 15.5876C9.87754 15.683 10.1225 15.683 10.3545 15.5876C11.4639 15.1312 13.3206 14.237 14.8736 12.8888C16.4252 11.5417 17.5 9.90218 17.5 7.91667C17.5 5.8456 15.8211 4.16667 13.75 4.16667C12.7418 4.16667 11.8294 4.56239 11.154 5.2105L10.577 5.76422ZM10 4.00798C9.0268 3.074 7.70545 2.5 6.25004 2.5C3.2585 2.5 0.833374 4.92512 0.833374 7.91667C0.833374 13.2235 6.64199 16.1542 9.01153 17.1289C9.64968 17.3914 10.3504 17.3914 10.9885 17.1289C13.3581 16.1542 19.1667 13.2235 19.1667 7.91667C19.1667 4.92512 16.7416 2.5 13.75 2.5C12.2946 2.5 10.9733 3.074 10 4.00798Z"/>
</symbol><symbol viewBox="0 0 24 24" id="search" xmlns="http://www.w3.org/2000/svg">
    <path d="M18.5 18.5L22 22M21 11.5C21 6.25329 16.7467 2 11.5 2C6.25329 2 2 6.25329 2 11.5C2 16.7467 6.25329 21 11.5 21C16.7467 21 21 16.7467 21 11.5Z" stroke-width="1.5" stroke-linecap="round" stroke-linejoin="round"/>
</symbol><symbol viewBox="0 0 16 16" id="star" xmlns="http://www.w3.org/2000/svg">
    <path d="M7.53834 1.10997C7.70914 0.699319 8.29086 0.699318 8.46166 1.10996L9.99874 4.80556C10.0707 4.97868 10.2336 5.09696 10.4204 5.11194L14.4102 5.4318C14.8535 5.46734 15.0332 6.02059 14.6955 6.30993L11.6557 8.91378C11.5133 9.03576 11.4512 9.22715 11.4947 9.40952L12.4234 13.3028C12.5265 13.7354 12.0559 14.0773 11.6764 13.8455L8.26063 11.7592C8.10062 11.6615 7.89938 11.6615 7.73937 11.7592L4.32363 13.8455C3.94408 14.0773 3.47345 13.7354 3.57665 13.3028L4.50534 9.40952C4.54884 9.22715 4.48665 9.03576 4.34426 8.91378L1.30453 6.30993C0.966758 6.02059 1.14652 5.46734 1.58985 5.4318L5.57955 5.11194C5.76645 5.09696 5.92925 4.97868 6.00126 4.80556L7.53834 1.10997Z"/>
</symbol><symbol viewBox="0 0 24 24" id="ticket-percent" xmlns="http://www.w3.org/2000/svg">
    <path d="M21.0181 14.8356L20.7727 15.5444H20.7727L21.0181 14.8356ZM21.0181 9.16437L21.2635 9.8731V9.8731L21.0181 9.16437ZM2.98189 14.8356L3.22727 15.5444H3.22727L2.98189 14.8356ZM2.98189 9.16437L2.73652 9.8731L2.73652 9.8731L2.98189 9.16437ZM15.5303 9.53033C15.8232 9.23744 15.8232 8.76256 15.5303 8.46967C15.2374 8.17678 14.7626 8.17678 14.4697 8.46967L15.5303 9.53033ZM8.46967 14.4697C8.17678 14.7626 8.17678 15.2374 8.46967 15.5303C8.76256 15.8232 9.23744 15.8232 9.53033 15.5303L8.46967 14.4697ZM6 20.25C4.20507 20.25 2.75 18.7949 2.75 17H1.25C1.25 19.6234 3.37665 21.75 6 21.75V20.25ZM21.25 17C21.25 18.7949 19.7949 20.25 18 20.25V21.75C20.6234 21.75 22.75 19.6234 22.75 17H21.25ZM18 3.75C19.7949 3.75 21.25 5.20507 21.25 7H22.75C22.75 4.37665 20.6234 2.25 18 2.25V3.75ZM6 2.25C3.37665 2.25 1.25 4.37665 1.25 7H2.75C2.75 5.20507 4.20507 3.75 6 3.75V2.25ZM21.2635 14.1269C20.3815 13.8216 19.75 12.9836 19.75 12H18.25C18.25 13.6424 19.3054 15.0363 20.7727 15.5444L21.2635 14.1269ZM19.75 12C19.75 11.0164 20.3815 10.1784 21.2635 9.8731L20.7727 8.45565C19.3054 8.96367 18.25 10.3576 18.25 12H19.75ZM4.25 12C4.25 12.9836 3.61845 13.8216 2.73652 14.1269L3.22727 15.5444C4.69461 15.0363 5.75 13.6424 5.75 12H4.25ZM2.73652 9.8731C3.61845 10.1784 4.25 11.0164 4.25 12H5.75C5.75 10.3576 4.69462 8.96367 3.22727 8.45565L2.73652 9.8731ZM22.75 8V7H21.25V8H22.75ZM21.25 16V17H22.75V16H21.25ZM1.25 16V17H2.75V16H1.25ZM2.75 8V7H1.25V8H2.75ZM18 20.25H6V21.75H18V20.25ZM18 2.25H6V3.75H18V2.25ZM2.73652 14.1269C2.05785 14.3619 1.25 14.9975 1.25 16H2.75C2.75 15.9441 2.77081 15.8708 2.85172 15.7813C2.9366 15.6873 3.06974 15.5989 3.22727 15.5444L2.73652 14.1269ZM21.2635 9.8731C21.9422 9.63813 22.75 9.00246 22.75 8H21.25C21.25 8.05587 21.2292 8.12917 21.1483 8.21871C21.0634 8.31265 20.9303 8.40111 20.7727 8.45565L21.2635 9.8731ZM3.22727 8.45565C3.06974 8.40111 2.9366 8.31265 2.85172 8.21871C2.77081 8.12917 2.75 8.05587 2.75 8H1.25C1.25 9.00246 2.05785 9.63813 2.73652 9.8731L3.22727 8.45565ZM20.7727 15.5444C20.9303 15.5989 21.0634 15.6873 21.1483 15.7813C21.2292 15.8708 21.25 15.9441 21.25 16H22.75C22.75 14.9975 21.9422 14.3619 21.2635 14.1269L20.7727 15.5444ZM9.25 9C9.25 9.13807 9.13807 9.25 9 9.25V10.75C9.9665 10.75 10.75 9.9665 10.75 9H9.25ZM9 9.25C8.86193 9.25 8.75 9.13807 8.75 9H7.25C7.25 9.9665 8.0335 10.75 9 10.75V9.25ZM8.75 9C8.75 8.86193 8.86193 8.75 9 8.75V7.25C8.0335 7.25 7.25 8.0335 7.25 9H8.75ZM9 8.75C9.13807 8.75 9.25 8.86193 9.25 9H10.75C10.75 8.0335 9.9665 7.25 9 7.25V8.75ZM15.25 15C15.25 15.1381 15.1381 15.25 15 15.25V16.75C15.9665 16.75 16.75 15.9665 16.75 15H15.25ZM15 15.25C14.8619 15.25 14.75 15.1381 14.75 15H13.25C13.25 15.9665 14.0335 16.75 15 16.75V15.25ZM14.75 15C14.75 14.8619 14.8619 14.75 15 14.75V13.25C14.0335 13.25 13.25 14.0335 13.25 15H14.75ZM15 14.75C15.1381 14.75 15.25 14.8619 15.25 15H16.75C16.75 14.0335 15.9665 13.25 15 13.25V14.75ZM14.4697 8.46967L8.46967 14.4697L9.53033 15.5303L15.5303 9.53033L14.4697 8.46967Z"/>
</symbol><symbol viewBox="0 0 24 24" id="user" xmlns="http://www.w3.org/2000/svg">
    <path d="M18.5588 19.5488C17.5654 16.8918 15.0036 15 12 15C8.99638 15 6.4346 16.8918 5.44117 19.5488M18.5588 19.5488C20.6672 17.7154 22 15.0134 22 12C22 6.47715 17.5228 2 12 2C6.47715 2 2 6.47715 2 12C2 15.0134 3.33285 17.7154 5.44117 19.5488M18.5588 19.5488C16.8031 21.0756 14.5095 22 12 22C9.49052 22 7.19694 21.0756 5.44117 19.5488M15 9C15 10.6569 13.6569 12 12 12C10.3431 12 9 10.6569 9 9C9 7.34315 10.3431 6 12 6C13.6569 6 15 7.34315 15 9Z" stroke-width="1.5" stroke-linejoin="round"/>
</symbol></svg>